<svg id="my-svg" width="100%" xmlns="http://www.w3.org/2000/svg" xmlns:xlink="http://www.w3.org/1999/xlink" style="max-width: 1104.14px; background-color: white;" viewBox="-8 -8 1104.140625 2210.69921875" role="graphics-document document" aria-roledescription="flowchart-v2"><style>#my-svg{font-family:"trebuchet ms",verdana,arial,sans-serif;font-size:16px;fill:#000000;}#my-svg .error-icon{fill:#552222;}#my-svg .error-text{fill:#552222;stroke:#552222;}#my-svg .edge-thickness-normal{stroke-width:2px;}#my-svg .edge-thickness-thick{stroke-width:3.5px;}#my-svg .edge-pattern-solid{stroke-dasharray:0;}#my-svg .edge-pattern-dashed{stroke-dasharray:3;}#my-svg .edge-pattern-dotted{stroke-dasharray:2;}#my-svg .marker{fill:#666;stroke:#666;}#my-svg .marker.cross{stroke:#666;}#my-svg svg{font-family:"trebuchet ms",verdana,arial,sans-serif;font-size:16px;}#my-svg .label{font-family:"trebuchet ms",verdana,arial,sans-serif;color:#000000;}#my-svg .cluster-label text{fill:#333;}#my-svg .cluster-label span,#my-svg p{color:#333;}#my-svg .label text,#my-svg span,#my-svg p{fill:#000000;color:#000000;}#my-svg .node rect,#my-svg .node circle,#my-svg .node ellipse,#my-svg .node polygon,#my-svg .node path{fill:#eee;stroke:#999;stroke-width:1px;}#my-svg .flowchart-label text{text-anchor:middle;}#my-svg .node .katex path{fill:#000;stroke:#000;stroke-width:1px;}#my-svg .node .label{text-align:center;}#my-svg .node.clickable{cursor:pointer;}#my-svg .arrowheadPath{fill:#333333;}#my-svg .edgePath .path{stroke:#666;stroke-width:2.0px;}#my-svg .flowchart-link{stroke:#666;fill:none;}#my-svg .edgeLabel{background-color:white;text-align:center;}#my-svg .edgeLabel rect{opacity:0.5;background-color:white;fill:white;}#my-svg .labelBkg{background-color:rgba(255, 255, 255, 0.5);}#my-svg .cluster rect{fill:hsl(0, 0%, 98.9215686275%);stroke:#707070;stroke-width:1px;}#my-svg .cluster text{fill:#333;}#my-svg .cluster span,#my-svg p{color:#333;}#my-svg div.mermaidTooltip{position:absolute;text-align:center;max-width:200px;padding:2px;font-family:"trebuchet ms",verdana,arial,sans-serif;font-size:12px;background:hsl(-160, 0%, 93.3333333333%);border:1px solid #707070;border-radius:2px;pointer-events:none;z-index:100;}#my-svg .flowchartTitleText{text-anchor:middle;font-size:18px;fill:#000000;}#my-svg :root{--mermaid-font-family:"trebuchet ms",verdana,arial,sans-serif;}#my-svg .actor&gt;*{fill:rgb(255, 244, 224)!important;stroke:rgb(214, 158, 46)!important;color:rgb(116, 66, 16)!important;font-weight:bold!important;}#my-svg .actor span{fill:rgb(255, 244, 224)!important;stroke:rgb(214, 158, 46)!important;color:rgb(116, 66, 16)!important;font-weight:bold!important;}#my-svg .actor tspan{fill:rgb(116, 66, 16)!important;}#my-svg .intake&gt;*{fill:rgb(239, 246, 255)!important;stroke:rgb(59, 130, 246)!important;color:rgb(30, 58, 138)!important;}#my-svg .intake span{fill:rgb(239, 246, 255)!important;stroke:rgb(59, 130, 246)!important;color:rgb(30, 58, 138)!important;}#my-svg .intake tspan{fill:rgb(30, 58, 138)!important;}#my-svg .code&gt;*{fill:rgb(240, 253, 244)!important;stroke:rgb(22, 163, 74)!important;color:rgb(20, 83, 45)!important;}#my-svg .code span{fill:rgb(240, 253, 244)!important;stroke:rgb(22, 163, 74)!important;color:rgb(20, 83, 45)!important;}#my-svg .code tspan{fill:rgb(20, 83, 45)!important;}#my-svg .risk&gt;*{fill:rgb(254, 242, 242)!important;stroke:rgb(220, 38, 38)!important;color:rgb(127, 29, 29)!important;}#my-svg .risk span{fill:rgb(254, 242, 242)!important;stroke:rgb(220, 38, 38)!important;color:rgb(127, 29, 29)!important;}#my-svg .risk tspan{fill:rgb(127, 29, 29)!important;}#my-svg .out&gt;*{fill:rgb(245, 243, 255)!important;stroke:rgb(124, 58, 237)!important;color:rgb(76, 29, 149)!important;}#my-svg .out span{fill:rgb(245, 243, 255)!important;stroke:rgb(124, 58, 237)!important;color:rgb(76, 29, 149)!important;}#my-svg .out tspan{fill:rgb(76, 29, 149)!important;}#my-svg .rev&gt;*{fill:rgb(236, 254, 255)!important;stroke:rgb(8, 145, 178)!important;color:rgb(22, 78, 99)!important;}#my-svg .rev span{fill:rgb(236, 254, 255)!important;stroke:rgb(8, 145, 178)!important;color:rgb(22, 78, 99)!important;}#my-svg .rev tspan{fill:rgb(22, 78, 99)!important;}#my-svg .comp&gt;*{fill:rgb(250, 245, 255)!important;stroke:rgb(147, 51, 234)!important;color:rgb(88, 28, 135)!important;}#my-svg .comp span{fill:rgb(250, 245, 255)!important;stroke:rgb(147, 51, 234)!important;color:rgb(88, 28, 135)!important;}#my-svg .comp tspan{fill:rgb(88, 28, 135)!important;}</style><g><marker id="my-svg_flowchart-pointEnd" class="marker flowchart" viewBox="0 0 10 10" refX="6" refY="5" markerUnits="userSpaceOnUse" markerWidth="12" markerHeight="12" orient="auto"><path d="M 0 0 L 10 5 L 0 10 z" class="arrowMarkerPath" style="stroke-width: 1; stroke-dasharray: 1, 0;"/></marker><marker id="my-svg_flowchart-pointStart" class="marker flowchart" viewBox="0 0 10 10" refX="4.5" refY="5" markerUnits="userSpaceOnUse" markerWidth="12" markerHeight="12" orient="auto"><path d="M 0 5 L 10 10 L 10 0 z" class="arrowMarkerPath" style="stroke-width: 1; stroke-dasharray: 1, 0;"/></marker><marker id="my-svg_flowchart-circleEnd" class="marker flowchart" viewBox="0 0 10 10" refX="11" refY="5" markerUnits="userSpaceOnUse" markerWidth="11" markerHeight="11" orient="auto"><circle cx="5" cy="5" r="5" class="arrowMarkerPath" style="stroke-width: 1; stroke-dasharray: 1, 0;"/></marker><marker id="my-svg_flowchart-circleStart" class="marker flowchart" viewBox="0 0 10 10" refX="-1" refY="5" markerUnits="userSpaceOnUse" markerWidth="11" markerHeight="11" orient="auto"><circle cx="5" cy="5" r="5" class="arrowMarkerPath" style="stroke-width: 1; stroke-dasharray: 1, 0;"/></marker><marker id="my-svg_flowchart-crossEnd" class="marker cross flowchart" viewBox="0 0 11 11" refX="12" refY="5.2" markerUnits="userSpaceOnUse" markerWidth="11" markerHeight="11" orient="auto"><path d="M 1,1 l 9,9 M 10,1 l -9,9" class="arrowMarkerPath" style="stroke-width: 2; stroke-dasharray: 1, 0;"/></marker><marker id="my-svg_flowchart-crossStart" class="marker cross flowchart" viewBox="0 0 11 11" refX="-1" refY="5.2" markerUnits="userSpaceOnUse" markerWidth="11" markerHeight="11" orient="auto"><path d="M 1,1 l 9,9 M 10,1 l -9,9" class="arrowMarkerPath" style="stroke-width: 2; stroke-dasharray: 1, 0;"/></marker><g class="root"><g class="clusters"><g class="cluster default flowchart-label" id="Compliance"><rect style="" rx="0" ry="0" x="236.0625" y="705.9375" width="202.796875" height="526.3125"/><g class="cluster-label" transform="translate(282.9375, 705.9375)"><foreignObject width="109.046875" height="26"><div xmlns="http://www.w3.org/1999/xhtml" style="display: inline-block; white-space: nowrap;"><span class="nodeLabel">🛡️ Audit &amp; Ops</span></div></foreignObject></g></g><g class="cluster default flowchart-label" id="Reviewer"><rect style="" rx="0" ry="0" x="549.53125" y="1424.12890625" width="538.609375" height="770.5703125"/><g class="cluster-label" transform="translate(728.28125, 1424.12890625)"><foreignObject width="181.109375" height="26"><div xmlns="http://www.w3.org/1999/xhtml" style="display: inline-block; white-space: nowrap;"><span class="nodeLabel">🔍 Reviewer Productivity</span></div></foreignObject></g></g><g class="cluster default flowchart-label" id="Output"><rect style="" rx="0" ry="0" x="236.0625" y="1272.25" width="202.796875" height="393.734375"/><g class="cluster-label" transform="translate(254.078125, 1272.25)"><foreignObject width="166.765625" height="26"><div xmlns="http://www.w3.org/1999/xhtml" style="display: inline-block; white-space: nowrap;"><span class="nodeLabel">📤 Submission &amp; Forms</span></div></foreignObject></g></g><g class="cluster default flowchart-label" id="Risk"><rect style="" rx="0" ry="0" x="549.53125" y="739.7734375" width="538.609375" height="664.35546875"/><g class="cluster-label" transform="translate(763.921875, 739.7734375)"><foreignObject width="109.828125" height="26"><div xmlns="http://www.w3.org/1999/xhtml" style="display: inline-block; white-space: nowrap;"><span class="nodeLabel">⚖️ Risk Scoring</span></div></foreignObject></g></g><g class="cluster default flowchart-label" id="Coding"><rect style="" rx="0" ry="0" x="549.53125" y="0" width="538.609375" height="341.5"/><g class="cluster-label" transform="translate(734.8984375, 0)"><foreignObject width="167.875" height="26"><div xmlns="http://www.w3.org/1999/xhtml" style="display: inline-block; white-space: nowrap;"><span class="nodeLabel">🏥 Coding &amp; Extraction</span></div></foreignObject></g></g><g class="cluster default flowchart-label" id="Intake"><rect style="" rx="0" ry="0" x="236.0625" y="361.5" width="580.640625" height="251.47265625"/><g class="cluster-label" transform="translate(440.078125, 361.5)"><foreignObject width="172.609375" height="26"><div xmlns="http://www.w3.org/1999/xhtml" style="display: inline-block; white-space: nowrap;"><span class="nodeLabel">📥 Intake &amp; Digitization</span></div></foreignObject></g></g><g class="cluster default flowchart-label" id="Actors"><rect style="" rx="0" ry="0" x="0" y="51.79296875" width="186.0625" height="2142.90625"/><g class="cluster-label" transform="translate(58.5703125, 51.79296875)"><foreignObject width="68.921875" height="26"><div xmlns="http://www.w3.org/1999/xhtml" style="display: inline-block; white-space: nowrap;"><span class="nodeLabel">👥 Actors</span></div></foreignObject></g></g></g><g class="edgePaths"><path d="M106.31,338.719L119.602,365.245C132.894,391.771,159.478,444.823,176.937,471.349C194.396,497.875,202.729,497.875,211.063,497.875C219.396,497.875,227.729,497.875,240.835,493.218C253.941,488.562,271.82,479.248,280.759,474.592L289.698,469.935" id="L-PATIENT-UC1-0" class="edge-thickness-normal edge-pattern-solid flowchart-link LS-PATIENT LE-UC1" style="fill:none;" marker-end="url(#my-svg_flowchart-pointEnd)"/><path d="M103.414,338.719L117.189,373.874C130.964,409.03,158.513,479.341,176.454,514.497C194.396,549.652,202.729,549.652,211.063,549.652C219.396,549.652,227.729,549.652,248.796,549.652C269.862,549.652,303.661,549.652,337.461,549.652C371.26,549.652,405.06,549.652,431.182,549.652C457.305,549.652,475.75,549.652,494.195,549.652C512.641,549.652,531.086,549.652,550.375,546.388C569.664,543.124,589.796,536.595,599.862,533.331L609.929,530.066" id="L-PATIENT-UC2-0" class="edge-thickness-normal edge-pattern-solid flowchart-link LS-PATIENT LE-UC2" style="fill:none;" marker-end="url(#my-svg_flowchart-pointEnd)"/><path d="M98.059,887.078L112.727,809.778C127.394,732.478,156.728,577.878,175.562,500.577C194.396,423.277,202.729,423.277,211.063,423.277C219.396,423.277,227.729,423.277,240.02,425.022C252.311,426.767,268.559,430.257,276.683,432.001L284.807,433.746" id="L-HOSP-UC1-0" class="edge-thickness-normal edge-pattern-solid flowchart-link LS-HOSP LE-UC1" style="fill:none;" marker-end="url(#my-svg_flowchart-pointEnd)"/><path d="M96.967,887.078L111.816,787.094C126.665,687.109,156.364,487.141,175.38,387.156C194.396,287.172,202.729,287.172,211.063,287.172C219.396,287.172,227.729,287.172,248.796,287.172C269.862,287.172,303.661,287.172,337.461,287.172C371.26,287.172,405.06,287.172,431.182,287.172C457.305,287.172,475.75,287.172,494.195,287.172C512.641,287.172,531.086,287.172,562.573,287.172C594.06,287.172,638.589,287.172,683.117,287.172C727.646,287.172,772.174,287.172,802.966,287.172C833.758,287.172,850.813,287.172,871.386,280.153C891.96,273.134,916.053,259.097,928.099,252.078L940.146,245.059" id="L-HOSP-UC3-0" class="edge-thickness-normal edge-pattern-solid flowchart-link LS-HOSP LE-UC3" style="fill:none;" marker-end="url(#my-svg_flowchart-pointEnd)"/><path d="M95.691,940.078L110.753,1090.124C125.815,1240.171,155.939,1540.263,175.167,1690.309C194.396,1840.355,202.729,1840.355,211.063,1840.355C219.396,1840.355,227.729,1840.355,248.796,1840.355C269.862,1840.355,303.661,1840.355,337.461,1840.355C371.26,1840.355,405.06,1840.355,431.182,1732.286C457.305,1624.216,475.75,1408.077,494.195,1300.007C512.641,1191.938,531.086,1191.938,562.573,1191.938C594.06,1191.938,638.589,1191.938,683.117,1191.938C727.646,1191.938,772.174,1191.938,802.966,1191.938C833.758,1191.938,850.813,1191.938,871.945,1180.595C893.077,1169.253,918.287,1146.569,930.892,1135.226L943.497,1123.884" id="L-HOSP-UC5-0" class="edge-thickness-normal edge-pattern-solid flowchart-link LS-HOSP LE-UC5" style="fill:none;" marker-end="url(#my-svg_flowchart-pointEnd)"/><path d="M96.62,940.078L111.527,1050.151C126.434,1160.224,156.248,1380.37,175.322,1490.443C194.396,1600.516,202.729,1600.516,211.063,1600.516C219.396,1600.516,227.729,1600.516,238.285,1598.625C248.84,1596.735,261.617,1592.955,268.006,1591.065L274.395,1589.175" id="L-HOSP-UC8-0" class="edge-thickness-normal edge-pattern-solid flowchart-link LS-HOSP LE-UC8" style="fill:none;" marker-end="url(#my-svg_flowchart-pointEnd)"/><path d="M94.77,1597.016L109.985,1365.076C125.201,1133.137,155.632,669.258,175.014,437.318C194.396,205.379,202.729,205.379,211.063,205.379C219.396,205.379,227.729,205.379,248.796,205.379C269.862,205.379,303.661,205.379,337.461,205.379C371.26,205.379,405.06,205.379,431.182,205.379C457.305,205.379,475.75,205.379,494.195,205.379C512.641,205.379,531.086,205.379,545.346,203.049C559.606,200.719,569.68,196.059,574.717,193.729L579.754,191.399" id="L-TPA-UC4-0" class="edge-thickness-normal edge-pattern-solid flowchart-link LS-TPA LE-UC4" style="fill:none;" marker-end="url(#my-svg_flowchart-pointEnd)"/><path d="M99.672,1597.016L114.07,1539.555C128.469,1482.094,157.266,1367.172,175.831,1309.711C194.396,1252.25,202.729,1252.25,211.063,1252.25C219.396,1252.25,227.729,1252.25,248.796,1252.25C269.862,1252.25,303.661,1252.25,337.461,1252.25C371.26,1252.25,405.06,1252.25,431.182,1182.022C457.305,1111.794,475.75,971.339,494.195,901.111C512.641,830.883,531.086,830.883,562.573,830.883C594.06,830.883,638.589,830.883,683.117,830.883C727.646,830.883,772.174,830.883,802.966,830.883C833.758,830.883,850.813,830.883,875.162,863.008C899.511,895.132,931.156,959.382,946.978,991.507L962.8,1023.632" id="L-TPA-UC5-0" class="edge-thickness-normal edge-pattern-solid flowchart-link LS-TPA LE-UC5" style="fill:none;" marker-end="url(#my-svg_flowchart-pointEnd)"/><path d="M106.786,1650.016L119.999,1675.471C133.212,1700.927,159.637,1751.839,177.016,1777.294C194.396,1802.75,202.729,1802.75,211.063,1802.75C219.396,1802.75,227.729,1802.75,248.796,1802.75C269.862,1802.75,303.661,1802.75,337.461,1802.75C371.26,1802.75,405.06,1802.75,431.182,1691.271C457.305,1579.792,475.75,1356.833,494.195,1245.354C512.641,1133.875,531.086,1133.875,551.926,1130.565C572.766,1127.255,596,1120.635,607.617,1117.325L619.235,1114.014" id="L-TPA-UC7-0" class="edge-thickness-normal edge-pattern-solid flowchart-link LS-TPA LE-UC7" style="fill:none;" marker-end="url(#my-svg_flowchart-pointEnd)"/><path d="M150.364,1597.016L156.314,1594.266C162.264,1591.516,174.163,1586.016,184.279,1583.266C194.396,1580.516,202.729,1580.516,211.063,1580.516C219.396,1580.516,227.729,1580.516,237.887,1579.925C248.045,1579.334,260.027,1578.152,266.019,1577.561L272.01,1576.97" id="L-TPA-UC8-0" class="edge-thickness-normal edge-pattern-solid flowchart-link LS-TPA LE-UC8" style="fill:none;" marker-end="url(#my-svg_flowchart-pointEnd)"/><path d="M100.706,1650.016L114.932,1699.133C129.158,1748.251,157.61,1846.487,176.003,1895.605C194.396,1944.723,202.729,1944.723,211.063,1944.723C219.396,1944.723,227.729,1944.723,248.796,1944.723C269.862,1944.723,303.661,1944.723,337.461,1944.723C371.26,1944.723,405.06,1944.723,431.182,1944.723C457.305,1944.723,475.75,1944.723,494.195,1944.723C512.641,1944.723,531.086,1944.723,555.287,1927.888C579.489,1911.053,609.446,1877.384,624.425,1860.55L639.404,1843.715" id="L-TPA-UC10-0" class="edge-thickness-normal edge-pattern-solid flowchart-link LS-TPA LE-UC10" style="fill:none;" marker-end="url(#my-svg_flowchart-pointEnd)"/><path d="M98.914,1650.016L113.439,1715.448C127.963,1780.88,157.013,1911.745,175.704,1977.177C194.396,2042.609,202.729,2042.609,211.063,2042.609C219.396,2042.609,227.729,2042.609,248.796,2042.609C269.862,2042.609,303.661,2042.609,337.461,2042.609C371.26,2042.609,405.06,2042.609,431.182,2042.609C457.305,2042.609,475.75,2042.609,494.195,2042.609C512.641,2042.609,531.086,2042.609,550.804,2042.609C570.522,2042.609,591.514,2042.609,602.009,2042.609L612.505,2042.609" id="L-TPA-UC11-0" class="edge-thickness-normal edge-pattern-solid flowchart-link LS-TPA LE-UC11" style="fill:none;" marker-end="url(#my-svg_flowchart-pointEnd)"/><path d="M97.778,1650.016L112.492,1732.167C127.206,1814.318,156.634,1978.62,175.515,2060.771C194.396,2142.922,202.729,2142.922,211.063,2142.922C219.396,2142.922,227.729,2142.922,248.796,2142.922C269.862,2142.922,303.661,2142.922,337.461,2142.922C371.26,2142.922,405.06,2142.922,431.182,2142.922C457.305,2142.922,475.75,2142.922,494.195,2142.922C512.641,2142.922,531.086,2142.922,562.573,2142.922C594.06,2142.922,638.589,2142.922,683.117,2142.922C727.646,2142.922,772.174,2142.922,802.966,2142.922C833.758,2142.922,850.813,2142.922,872.133,2135.42C893.454,2127.919,919.041,2112.916,931.835,2105.414L944.629,2097.912" id="L-TPA-UC12-0" class="edge-thickness-normal edge-pattern-solid flowchart-link LS-TPA LE-UC12" style="fill:none;" marker-end="url(#my-svg_flowchart-pointEnd)"/><path d="M133.589,1839.965L142.335,1845.679C151.08,1851.393,168.571,1862.822,181.484,1868.536C194.396,1874.25,202.729,1874.25,211.063,1874.25C219.396,1874.25,227.729,1874.25,248.796,1874.25C269.862,1874.25,303.661,1874.25,337.461,1874.25C371.26,1874.25,405.06,1874.25,431.182,1785.309C457.305,1696.367,475.75,1518.484,494.195,1429.543C512.641,1340.602,531.086,1340.602,562.573,1340.602C594.06,1340.602,638.589,1340.602,683.117,1340.602C727.646,1340.602,772.174,1340.602,802.966,1340.602C833.758,1340.602,850.813,1340.602,867.72,1337.641C884.628,1334.681,901.388,1328.76,909.768,1325.8L918.148,1322.84" id="L-SIU-UC6-0" class="edge-thickness-normal edge-pattern-solid flowchart-link LS-SIU LE-UC6" style="fill:none;" marker-end="url(#my-svg_flowchart-pointEnd)"/><path d="M115.8,1839.965L127.51,1853.594C139.221,1867.224,162.642,1894.483,178.519,1908.113C194.396,1921.742,202.729,1921.742,211.063,1921.742C219.396,1921.742,227.729,1921.742,248.796,1921.742C269.862,1921.742,303.661,1921.742,337.461,1921.742C371.26,1921.742,405.06,1921.742,431.182,1921.742C457.305,1921.742,475.75,1921.742,494.195,1921.742C512.641,1921.742,531.086,1921.742,554.634,1908.106C578.183,1894.47,606.834,1867.198,621.159,1853.562L635.485,1839.926" id="L-SIU-UC10-0" class="edge-thickness-normal edge-pattern-solid flowchart-link LS-SIU LE-UC10" style="fill:none;" marker-end="url(#my-svg_flowchart-pointEnd)"/><path d="M95.631,1786.965L110.703,1633.342C125.775,1479.719,155.919,1172.473,175.157,1018.85C194.396,865.227,202.729,865.227,211.063,865.227C219.396,865.227,227.729,865.227,240.979,858.772C254.229,852.317,272.395,839.408,281.479,832.953L290.562,826.499" id="L-SIU-UC13-0" class="edge-thickness-normal edge-pattern-solid flowchart-link LS-SIU LE-UC13" style="fill:none;" marker-end="url(#my-svg_flowchart-pointEnd)"/><path d="M99.408,1129.664L113.85,1069.646C128.293,1009.628,157.178,889.591,175.787,829.573C194.396,769.555,202.729,769.555,211.063,769.555C219.396,769.555,227.729,769.555,239.456,771.316C251.184,773.077,266.305,776.599,273.866,778.36L281.426,780.121" id="L-AUDIT-UC13-0" class="edge-thickness-normal edge-pattern-solid flowchart-link LS-AUDIT LE-UC13" style="fill:none;" marker-end="url(#my-svg_flowchart-pointEnd)"/><path d="M105.427,1129.664L118.866,1100.934C132.306,1072.203,159.184,1014.742,176.79,986.012C194.396,957.281,202.729,957.281,211.063,957.281C219.396,957.281,227.729,957.281,237.6,957.281C247.47,957.281,258.878,957.281,264.582,957.281L270.286,957.281" id="L-AUDIT-UC14-0" class="edge-thickness-normal edge-pattern-solid flowchart-link LS-AUDIT LE-UC14" style="fill:none;" marker-end="url(#my-svg_flowchart-pointEnd)"/><path d="M100.481,1182.664L114.745,1233.4C129.008,1284.137,157.535,1385.609,175.966,1436.346C194.396,1487.082,202.729,1487.082,211.063,1487.082C219.396,1487.082,227.729,1487.082,240.331,1494.023C252.933,1500.964,269.804,1514.845,278.239,1521.786L286.675,1528.727" id="L-AUDIT-UC8-0" class="edge-thickness-normal edge-pattern-solid flowchart-link LS-AUDIT LE-UC8" style="fill:none;" marker-end="url(#my-svg_flowchart-pointEnd)"/><path d="M150.258,1397.965L156.225,1395.579C162.193,1393.193,174.128,1388.421,184.262,1386.035C194.396,1383.648,202.729,1383.648,211.063,1383.648C219.396,1383.648,227.729,1383.648,235.179,1383.648C242.629,1383.648,249.196,1383.648,252.479,1383.648L255.763,1383.648" id="L-DEV-UC9-0" class="edge-thickness-normal edge-pattern-solid flowchart-link LS-DEV LE-UC9" style="fill:none;" marker-end="url(#my-svg_flowchart-pointEnd)"/><path d="M385.142,454.224L394.095,455.946C403.048,457.668,420.954,461.111,439.129,462.833C457.305,464.555,475.75,464.555,494.195,464.555C512.641,464.555,531.086,464.555,550.334,467.69C569.582,470.825,589.633,477.096,599.658,480.231L609.684,483.367" id="L-UC1-UC2-0" class="edge-thickness-normal edge-pattern-dotted flowchart-link LS-UC1 LE-UC2" style="fill:none;stroke-width:2px;stroke-dasharray:3;" marker-end="url(#my-svg_flowchart-pointEnd)"/><path d="M384.378,432.549L393.458,430.129C402.538,427.709,420.699,422.868,439.002,420.448C457.305,418.027,475.75,418.027,494.195,418.027C512.641,418.027,531.086,418.027,554.266,389.354C577.445,360.68,605.36,303.333,619.317,274.659L633.274,245.985" id="L-UC1-UC4-0" class="edge-thickness-normal edge-pattern-dotted flowchart-link LS-UC1 LE-UC4" style="fill:none;stroke-width:2px;stroke-dasharray:3;" marker-end="url(#my-svg_flowchart-pointEnd)"/><path d="M791.703,143.586L795.87,143.586C800.036,143.586,808.37,143.586,821.064,143.586C833.758,143.586,850.813,143.586,871.386,150.605C891.96,157.624,916.053,171.661,928.099,178.68L940.146,185.699" id="L-UC4-UC3-0" class="edge-thickness-normal edge-pattern-dotted flowchart-link LS-UC4 LE-UC3" style="fill:none;stroke-width:2px;stroke-dasharray:3;" marker-end="url(#my-svg_flowchart-pointEnd)"/><path d="M708.372,1040.149L726.428,1000.355C744.483,960.56,780.593,880.971,807.175,841.177C833.758,801.383,850.813,801.383,875.574,838.232C900.336,875.081,932.806,948.779,949.04,985.628L965.275,1022.478" id="L-UC7-UC5-0" class="edge-thickness-normal edge-pattern-dotted flowchart-link LS-UC7 LE-UC5" style="fill:none;stroke-width:2px;stroke-dasharray:3;" marker-end="url(#my-svg_flowchart-pointEnd)"/><path d="M727.646,1137.687L742.488,1151.646C757.331,1165.604,787.017,1193.521,810.388,1207.479C833.758,1221.438,850.813,1221.438,868.889,1227.299C886.965,1233.161,906.063,1244.884,915.612,1250.745L925.161,1256.607" id="L-UC7-UC6-0" class="edge-thickness-normal edge-pattern-dotted flowchart-link LS-UC7 LE-UC6" style="fill:none;stroke-width:2px;stroke-dasharray:3;" marker-end="url(#my-svg_flowchart-pointEnd)"/><path d="M397.93,1570.516L404.751,1570.516C411.573,1570.516,425.216,1570.516,441.26,1485.661C457.305,1400.807,475.75,1231.099,494.195,1146.245C512.641,1061.391,531.086,1061.391,551.852,1064.365C572.619,1067.34,595.706,1073.289,607.25,1076.263L618.793,1079.238" id="L-UC8-UC7-0" class="edge-thickness-normal edge-pattern-dotted flowchart-link LS-UC8 LE-UC7" style="fill:none;stroke-width:2px;stroke-dasharray:3;" marker-end="url(#my-svg_flowchart-pointEnd)"/><path d="M413.859,1383.648L418.026,1383.648C422.193,1383.648,430.526,1383.648,443.915,1310.481C457.305,1237.314,475.75,1090.979,494.195,1017.812C512.641,944.645,531.086,944.645,555.242,961.543C579.398,978.442,609.265,1012.24,624.198,1029.139L639.132,1046.038" id="L-UC9-UC7-0" class="edge-thickness-normal edge-pattern-dotted flowchart-link LS-UC9 LE-UC7" style="fill:none;stroke-width:2px;stroke-dasharray:3;" marker-end="url(#my-svg_flowchart-pointEnd)"/><path d="M743.578,1794.586L755.766,1794.586C767.953,1794.586,792.328,1794.586,813.043,1794.586C833.758,1794.586,850.813,1794.586,876.218,1832.404C901.624,1870.222,935.38,1945.857,952.259,1983.675L969.137,2021.493" id="L-UC10-UC12-0" class="edge-thickness-normal edge-pattern-dotted flowchart-link LS-UC10 LE-UC12" style="fill:none;stroke-width:2px;stroke-dasharray:3;" marker-end="url(#my-svg_flowchart-pointEnd)"/><path d="M367.173,1076.465L379.12,1053.649C391.068,1030.833,414.964,985.202,436.134,821.09C457.305,656.978,475.75,374.385,494.195,233.089C512.641,91.793,531.086,91.793,544.876,93.564C558.665,95.334,567.799,98.876,572.366,100.646L576.933,102.417" id="L-UC15-UC4-0" class="edge-thickness-normal edge-pattern-dotted flowchart-link LS-UC15 LE-UC4" style="fill:none;stroke-width:2px;stroke-dasharray:3;" marker-end="url(#my-svg_flowchart-pointEnd)"/><path d="M397.135,1156.463L404.089,1159.174C411.043,1161.884,424.951,1167.305,441.128,1223.205C457.305,1279.104,475.75,1385.482,494.195,1438.671C512.641,1491.859,531.086,1491.859,558.148,1532.287C585.21,1572.714,620.889,1653.568,638.729,1693.995L656.568,1734.422" id="L-UC15-UC10-0" class="edge-thickness-normal edge-pattern-dotted flowchart-link LS-UC15 LE-UC10" style="fill:none;stroke-width:2px;stroke-dasharray:3;" marker-end="url(#my-svg_flowchart-pointEnd)"/></g><g class="edgeLabels"><g class="edgeLabel"><g class="label" transform="translate(0, 0)"><foreignObject width="0" height="0"><div xmlns="http://www.w3.org/1999/xhtml" style="display: inline-block; white-space: nowrap;"><span class="edgeLabel"></span></div></foreignObject></g></g><g class="edgeLabel"><g class="label" transform="translate(0, 0)"><foreignObject width="0" height="0"><div xmlns="http://www.w3.org/1999/xhtml" style="display: inline-block; white-space: nowrap;"><span class="edgeLabel"></span></div></foreignObject></g></g><g class="edgeLabel"><g class="label" transform="translate(0, 0)"><foreignObject width="0" height="0"><div xmlns="http://www.w3.org/1999/xhtml" style="display: inline-block; white-space: nowrap;"><span class="edgeLabel"></span></div></foreignObject></g></g><g class="edgeLabel"><g class="label" transform="translate(0, 0)"><foreignObject width="0" height="0"><div xmlns="http://www.w3.org/1999/xhtml" style="display: inline-block; white-space: nowrap;"><span class="edgeLabel"></span></div></foreignObject></g></g><g class="edgeLabel"><g class="label" transform="translate(0, 0)"><foreignObject width="0" height="0"><div xmlns="http://www.w3.org/1999/xhtml" style="display: inline-block; white-space: nowrap;"><span class="edgeLabel"></span></div></foreignObject></g></g><g class="edgeLabel"><g class="label" transform="translate(0, 0)"><foreignObject width="0" height="0"><div xmlns="http://www.w3.org/1999/xhtml" style="display: inline-block; white-space: nowrap;"><span class="edgeLabel"></span></div></foreignObject></g></g><g class="edgeLabel"><g class="label" transform="translate(0, 0)"><foreignObject width="0" height="0"><div xmlns="http://www.w3.org/1999/xhtml" style="display: inline-block; white-space: nowrap;"><span class="edgeLabel"></span></div></foreignObject></g></g><g class="edgeLabel"><g class="label" transform="translate(0, 0)"><foreignObject width="0" height="0"><div xmlns="http://www.w3.org/1999/xhtml" style="display: inline-block; white-space: nowrap;"><span class="edgeLabel"></span></div></foreignObject></g></g><g class="edgeLabel"><g class="label" transform="translate(0, 0)"><foreignObject width="0" height="0"><div xmlns="http://www.w3.org/1999/xhtml" style="display: inline-block; white-space: nowrap;"><span class="edgeLabel"></span></div></foreignObject></g></g><g class="edgeLabel"><g class="label" transform="translate(0, 0)"><foreignObject width="0" height="0"><div xmlns="http://www.w3.org/1999/xhtml" style="display: inline-block; white-space: nowrap;"><span class="edgeLabel"></span></div></foreignObject></g></g><g class="edgeLabel"><g class="label" transform="translate(0, 0)"><foreignObject width="0" height="0"><div xmlns="http://www.w3.org/1999/xhtml" style="display: inline-block; white-space: nowrap;"><span class="edgeLabel"></span></div></foreignObject></g></g><g class="edgeLabel"><g class="label" transform="translate(0, 0)"><foreignObject width="0" height="0"><div xmlns="http://www.w3.org/1999/xhtml" style="display: inline-block; white-space: nowrap;"><span class="edgeLabel"></span></div></foreignObject></g></g><g class="edgeLabel"><g class="label" transform="translate(0, 0)"><foreignObject width="0" height="0"><div xmlns="http://www.w3.org/1999/xhtml" style="display: inline-block; white-space: nowrap;"><span class="edgeLabel"></span></div></foreignObject></g></g><g class="edgeLabel"><g class="label" transform="translate(0, 0)"><foreignObject width="0" height="0"><div xmlns="http://www.w3.org/1999/xhtml" style="display: inline-block; white-space: nowrap;"><span class="edgeLabel"></span></div></foreignObject></g></g><g class="edgeLabel"><g class="label" transform="translate(0, 0)"><foreignObject width="0" height="0"><div xmlns="http://www.w3.org/1999/xhtml" style="display: inline-block; white-space: nowrap;"><span class="edgeLabel"></span></div></foreignObject></g></g><g class="edgeLabel"><g class="label" transform="translate(0, 0)"><foreignObject width="0" height="0"><div xmlns="http://www.w3.org/1999/xhtml" style="display: inline-block; white-space: nowrap;"><span class="edgeLabel"></span></div></foreignObject></g></g><g class="edgeLabel"><g class="label" transform="translate(0, 0)"><foreignObject width="0" height="0"><div xmlns="http://www.w3.org/1999/xhtml" style="display: inline-block; white-space: nowrap;"><span class="edgeLabel"></span></div></foreignObject></g></g><g class="edgeLabel"><g class="label" transform="translate(0, 0)"><foreignObject width="0" height="0"><div xmlns="http://www.w3.org/1999/xhtml" style="display: inline-block; white-space: nowrap;"><span class="edgeLabel"></span></div></foreignObject></g></g><g class="edgeLabel"><g class="label" transform="translate(0, 0)"><foreignObject width="0" height="0"><div xmlns="http://www.w3.org/1999/xhtml" style="display: inline-block; white-space: nowrap;"><span class="edgeLabel"></span></div></foreignObject></g></g><g class="edgeLabel"><g class="label" transform="translate(0, 0)"><foreignObject width="0" height="0"><div xmlns="http://www.w3.org/1999/xhtml" style="display: inline-block; white-space: nowrap;"><span class="edgeLabel"></span></div></foreignObject></g></g><g class="edgeLabel" transform="translate(494.1953125, 464.5546875)"><g class="label" transform="translate(-26.1640625, -9.5)"><foreignObject width="52.328125" height="19"><div xmlns="http://www.w3.org/1999/xhtml" style="display: inline-block; white-space: nowrap;"><span class="edgeLabel">include</span></div></foreignObject></g></g><g class="edgeLabel" transform="translate(494.1953125, 418.02734375)"><g class="label" transform="translate(-26.1640625, -9.5)"><foreignObject width="52.328125" height="19"><div xmlns="http://www.w3.org/1999/xhtml" style="display: inline-block; white-space: nowrap;"><span class="edgeLabel">include</span></div></foreignObject></g></g><g class="edgeLabel" transform="translate(867.8671875, 143.5859375)"><g class="label" transform="translate(-26.1640625, -9.5)"><foreignObject width="52.328125" height="19"><div xmlns="http://www.w3.org/1999/xhtml" style="display: inline-block; white-space: nowrap;"><span class="edgeLabel">include</span></div></foreignObject></g></g><g class="edgeLabel" transform="translate(867.8671875, 801.3828125)"><g class="label" transform="translate(-26.1640625, -9.5)"><foreignObject width="52.328125" height="19"><div xmlns="http://www.w3.org/1999/xhtml" style="display: inline-block; white-space: nowrap;"><span class="edgeLabel">include</span></div></foreignObject></g></g><g class="edgeLabel" transform="translate(867.8671875, 1221.4375)"><g class="label" transform="translate(-26.1640625, -9.5)"><foreignObject width="52.328125" height="19"><div xmlns="http://www.w3.org/1999/xhtml" style="display: inline-block; white-space: nowrap;"><span class="edgeLabel">include</span></div></foreignObject></g></g><g class="edgeLabel" transform="translate(494.1953125, 1061.390625)"><g class="label" transform="translate(-24.734375, -9.5)"><foreignObject width="49.46875" height="19"><div xmlns="http://www.w3.org/1999/xhtml" style="display: inline-block; white-space: nowrap;"><span class="edgeLabel">extend</span></div></foreignObject></g></g><g class="edgeLabel" transform="translate(494.1953125, 944.64453125)"><g class="label" transform="translate(-24.734375, -9.5)"><foreignObject width="49.46875" height="19"><div xmlns="http://www.w3.org/1999/xhtml" style="display: inline-block; white-space: nowrap;"><span class="edgeLabel">extend</span></div></foreignObject></g></g><g class="edgeLabel" transform="translate(867.8671875, 1794.5859375)"><g class="label" transform="translate(-26.1640625, -9.5)"><foreignObject width="52.328125" height="19"><div xmlns="http://www.w3.org/1999/xhtml" style="display: inline-block; white-space: nowrap;"><span class="edgeLabel">include</span></div></foreignObject></g></g><g class="edgeLabel" transform="translate(494.1953125, 91.79296875)"><g class="label" transform="translate(-30.3359375, -9.5)"><foreignObject width="60.671875" height="19"><div xmlns="http://www.w3.org/1999/xhtml" style="display: inline-block; white-space: nowrap;"><span class="edgeLabel">supports</span></div></foreignObject></g></g><g class="edgeLabel" transform="translate(494.1953125, 1491.859375)"><g class="label" transform="translate(-30.3359375, -9.5)"><foreignObject width="60.671875" height="19"><div xmlns="http://www.w3.org/1999/xhtml" style="display: inline-block; white-space: nowrap;"><span class="edgeLabel">supports</span></div></foreignObject></g></g></g><g class="nodes"><g class="node default comp flowchart-label" id="flowchart-UC13-18" data-node="true" data-id="UC13" transform="translate(337.4609375, 793.171875)"><circle style="" rx="0" ry="0" r="52.234375" width="104.46875" height="72"/><g class="label" style="" transform="translate(-44.734375, -28.5)"><rect/><foreignObject width="89.46875" height="57"><div xmlns="http://www.w3.org/1999/xhtml" style="display: inline-block; white-space: nowrap;"><span class="nodeLabel">UC-13<br />Append-only<br />Audit Log</span></div></foreignObject></g></g><g class="node default comp flowchart-label" id="flowchart-UC14-19" data-node="true" data-id="UC14" transform="translate(337.4609375, 957.28125)"><circle style="" rx="0" ry="0" r="61.875" width="123.75" height="72"/><g class="label" style="" transform="translate(-54.375, -28.5)"><rect/><foreignObject width="108.75" height="57"><div xmlns="http://www.w3.org/1999/xhtml" style="display: inline-block; white-space: nowrap;"><span class="nodeLabel">UC-14<br />Upload Activity<br />File Logger</span></div></foreignObject></g></g><g class="node default comp flowchart-label" id="flowchart-UC15-20" data-node="true" data-id="UC15" transform="translate(337.4609375, 1133.203125)"><circle style="" rx="0" ry="0" r="64.046875" width="128.09375" height="72"/><g class="label" style="" transform="translate(-56.546875, -28.5)"><rect/><foreignObject width="113.09375" height="57"><div xmlns="http://www.w3.org/1999/xhtml" style="display: inline-block; white-space: nowrap;"><span class="nodeLabel">UC-15<br />Self-hosted LLM<br />(no PHI egress)</span></div></foreignObject></g></g><g class="node default rev flowchart-label" id="flowchart-UC10-15" data-node="true" data-id="UC10" transform="translate(683.1171875, 1794.5859375)"><circle style="" rx="0" ry="0" r="60.4609375" width="120.921875" height="72"/><g class="label" style="" transform="translate(-52.9609375, -28.5)"><rect/><foreignObject width="105.921875" height="57"><div xmlns="http://www.w3.org/1999/xhtml" style="display: inline-block; white-space: nowrap;"><span class="nodeLabel">UC-10<br />Conversational<br />Claim Q&amp;A</span></div></foreignObject></g></g><g class="node default rev flowchart-label" id="flowchart-UC11-16" data-node="true" data-id="UC11" transform="translate(683.1171875, 2042.609375)"><circle style="" rx="0" ry="0" r="65.3125" width="130.625" height="72"/><g class="label" style="" transform="translate(-57.8125, -28.5)"><rect/><foreignObject width="115.625" height="57"><div xmlns="http://www.w3.org/1999/xhtml" style="display: inline-block; white-space: nowrap;"><span class="nodeLabel">UC-11<br />Field Correction<br />+ Diff View</span></div></foreignObject></g></g><g class="node default rev flowchart-label" id="flowchart-UC12-17" data-node="true" data-id="UC12" transform="translate(991.0859375, 2070.671875)"><circle style="" rx="0" ry="0" r="48.5546875" width="97.109375" height="72"/><g class="label" style="" transform="translate(-41.0546875, -28.5)"><rect/><foreignObject width="82.109375" height="57"><div xmlns="http://www.w3.org/1999/xhtml" style="display: inline-block; white-space: nowrap;"><span class="nodeLabel">UC-12<br />Cross-Doc<br />RAG Search</span></div></foreignObject></g></g><g class="node default out flowchart-label" id="flowchart-UC8-13" data-node="true" data-id="UC8" transform="translate(337.4609375, 1570.515625)"><circle style="" rx="0" ry="0" r="60.46875" width="120.9375" height="72"/><g class="label" style="" transform="translate(-52.96875, -28.5)"><rect/><foreignObject width="105.9375" height="57"><div xmlns="http://www.w3.org/1999/xhtml" style="display: inline-block; white-space: nowrap;"><span class="nodeLabel">UC-8<br />IRDAI Standard<br />Claim Form</span></div></foreignObject></g></g><g class="node default out flowchart-label" id="flowchart-UC9-14" data-node="true" data-id="UC9" transform="translate(337.4609375, 1383.6484375)"><circle style="" rx="0" ry="0" r="76.3984375" width="152.796875" height="72"/><g class="label" style="" transform="translate(-68.8984375, -28.5)"><rect/><foreignObject width="137.796875" height="57"><div xmlns="http://www.w3.org/1999/xhtml" style="display: inline-block; white-space: nowrap;"><span class="nodeLabel">UC-9<br />FHIR R4 / X12 837P<br />Adapters</span></div></foreignObject></g></g><g class="node default risk flowchart-label" id="flowchart-UC5-10" data-node="true" data-id="UC5" transform="translate(991.0859375, 1081.0625)"><circle style="" rx="0" ry="0" r="58.71875" width="117.4375" height="72"/><g class="label" style="" transform="translate(-51.21875, -28.5)"><rect/><foreignObject width="102.4375" height="57"><div xmlns="http://www.w3.org/1999/xhtml" style="display: inline-block; white-space: nowrap;"><span class="nodeLabel">UC-5<br />Rejection-Risk<br />Prediction</span></div></foreignObject></g></g><g class="node default risk flowchart-label" id="flowchart-UC6-11" data-node="true" data-id="UC6" transform="translate(991.0859375, 1297.07421875)"><circle style="" rx="0" ry="0" r="72.0546875" width="144.109375" height="72"/><g class="label" style="" transform="translate(-64.5546875, -28.5)"><rect/><foreignObject width="129.109375" height="57"><div xmlns="http://www.w3.org/1999/xhtml" style="display: inline-block; white-space: nowrap;"><span class="nodeLabel">UC-6<br />Fraud Triage<br />(rules + ML + LLM)</span></div></foreignObject></g></g><g class="node default risk flowchart-label" id="flowchart-UC7-12" data-node="true" data-id="UC7" transform="translate(683.1171875, 1095.8125)"><circle style="" rx="0" ry="0" r="61.125" width="122.25" height="72"/><g class="label" style="" transform="translate(-53.625, -28.5)"><rect/><foreignObject width="107.25" height="57"><div xmlns="http://www.w3.org/1999/xhtml" style="display: inline-block; white-space: nowrap;"><span class="nodeLabel">UC-7<br />Rule Validation<br />R001–R011</span></div></foreignObject></g></g><g class="node default code flowchart-label" id="flowchart-UC3-8" data-node="true" data-id="UC3" transform="translate(991.0859375, 215.37890625)"><circle style="" rx="0" ry="0" r="53.65625" width="107.3125" height="72"/><g class="label" style="" transform="translate(-46.15625, -28.5)"><rect/><foreignObject width="92.3125" height="57"><div xmlns="http://www.w3.org/1999/xhtml" style="display: inline-block; white-space: nowrap;"><span class="nodeLabel">UC-3<br />ICD-10 / CPT<br />Auto-coding</span></div></foreignObject></g></g><g class="node default code flowchart-label" id="flowchart-UC4-9" data-node="true" data-id="UC4" transform="translate(683.1171875, 143.5859375)"><circle style="" rx="0" ry="0" r="108.5859375" width="217.171875" height="72"/><g class="label" style="" transform="translate(-101.0859375, -28.5)"><rect/><foreignObject width="202.171875" height="57"><div xmlns="http://www.w3.org/1999/xhtml" style="display: inline-block; white-space: nowrap;"><span class="nodeLabel">UC-4<br />Field Extraction<br />(patient · policy · diagnosis)</span></div></foreignObject></g></g><g class="node default intake flowchart-label" id="flowchart-UC1-6" data-node="true" data-id="UC1" transform="translate(337.4609375, 445.0546875)"><circle style="" rx="0" ry="0" r="48.5546875" width="97.109375" height="72"/><g class="label" style="" transform="translate(-41.0546875, -28.5)"><rect/><foreignObject width="82.109375" height="57"><div xmlns="http://www.w3.org/1999/xhtml" style="display: inline-block; white-space: nowrap;"><span class="nodeLabel">UC-1<br />Bulk Claim<br />Digitization</span></div></foreignObject></g></g><g class="node default intake flowchart-label" id="flowchart-UC2-7" data-node="true" data-id="UC2" transform="translate(683.1171875, 506.33203125)"><circle style="" rx="0" ry="0" r="71.640625" width="143.28125" height="72"/><g class="label" style="" transform="translate(-64.140625, -28.5)"><rect/><foreignObject width="128.28125" height="57"><div xmlns="http://www.w3.org/1999/xhtml" style="display: inline-block; white-space: nowrap;"><span class="nodeLabel">UC-2<br />Document<br />Dedup + Checklist</span></div></foreignObject></g></g><g class="node default actor flowchart-label" id="flowchart-TPA-0" data-node="true" data-id="TPA" transform="translate(93.03125, 1623.515625)"><rect class="basic label-container" style="" rx="0" ry="0" x="-68.03125" y="-26.5" width="136.0625" height="53"/><g class="label" style="" transform="translate(-60.53125, -19)"><rect/><foreignObject width="121.0625" height="38"><div xmlns="http://www.w3.org/1999/xhtml" style="display: inline-block; white-space: nowrap;"><span class="nodeLabel">TPA Reviewer /<br />Insurer Adjuster</span></div></foreignObject></g></g><g class="node default actor flowchart-label" id="flowchart-HOSP-1" data-node="true" data-id="HOSP" transform="translate(93.03125, 913.578125)"><rect class="basic label-container" style="" rx="0" ry="0" x="-67.8046875" y="-26.5" width="135.609375" height="53"/><g class="label" style="" transform="translate(-60.3046875, -19)"><rect/><foreignObject width="120.609375" height="38"><div xmlns="http://www.w3.org/1999/xhtml" style="display: inline-block; white-space: nowrap;"><span class="nodeLabel">Hospital Coder /<br />Revenue Cycle</span></div></foreignObject></g></g><g class="node default actor flowchart-label" id="flowchart-PATIENT-2" data-node="true" data-id="PATIENT" transform="translate(93.03125, 312.21875)"><rect class="basic label-container" style="" rx="0" ry="0" x="-61.125" y="-26.5" width="122.25" height="53"/><g class="label" style="" transform="translate(-53.625, -19)"><rect/><foreignObject width="107.25" height="38"><div xmlns="http://www.w3.org/1999/xhtml" style="display: inline-block; white-space: nowrap;"><span class="nodeLabel">Patient<br />(uploads docs)</span></div></foreignObject></g></g><g class="node default actor flowchart-label" id="flowchart-SIU-3" data-node="true" data-id="SIU" transform="translate(93.03125, 1813.46484375)"><rect class="basic label-container" style="" rx="0" ry="0" x="-58.234375" y="-26.5" width="116.46875" height="53"/><g class="label" style="" transform="translate(-50.734375, -19)"><rect/><foreignObject width="101.46875" height="38"><div xmlns="http://www.w3.org/1999/xhtml" style="display: inline-block; white-space: nowrap;"><span class="nodeLabel">SIU /<br />Fraud Analyst</span></div></foreignObject></g></g><g class="node default actor flowchart-label" id="flowchart-AUDIT-4" data-node="true" data-id="AUDIT" transform="translate(93.03125, 1156.1640625)"><rect class="basic label-container" style="" rx="0" ry="0" x="-56.4140625" y="-26.5" width="112.828125" height="53"/><g class="label" style="" transform="translate(-48.9140625, -19)"><rect/><foreignObject width="97.828125" height="38"><div xmlns="http://www.w3.org/1999/xhtml" style="display: inline-block; white-space: nowrap;"><span class="nodeLabel">Compliance /<br />Auditor</span></div></foreignObject></g></g><g class="node default actor flowchart-label" id="flowchart-DEV-5" data-node="true" data-id="DEV" transform="translate(93.03125, 1420.84765625)"><rect class="basic label-container" style="" rx="0" ry="0" x="-57.2265625" y="-26.5" width="114.453125" height="53"/><g class="label" style="" transform="translate(-49.7265625, -19)"><rect/><foreignObject width="99.453125" height="38"><div xmlns="http://www.w3.org/1999/xhtml" style="display: inline-block; white-space: nowrap;"><span class="nodeLabel">Integrator /<br />Payer System</span></div></foreignObject></g></g></g></g></g></svg>